# xmcd CD database file
#
# Track frame offsets:
#	150
#	16074
#	30426
#	44992
#	58241
#	69818
#	78984
#	103356
#	119872
#	137283
#	155109
#
# Disc length: 2772 seconds
#
# Revision: 0
# Processed by: cddbd v1.5.2PL0 Copyright (c) Steve Scherf et al.
# Submitted via: CDex 1.51
#
DISCID=980ad20b
DTITLE=Whiskey Go Go's - Proud Tales To Them Of Us
DYEAR=2007
DGENRE=Blues
TTITLE0=Kentucky Blues
TTITLE1=2 Cent Girl
TTITLE2=Rodeo
TTITLE3=Red Dress
TTITLE4=Hitch-Hiking Blues
TTITLE5=Boy Jewbi
TTITLE6=Home Chicago
TTITLE7=Hardworking Man
TTITLE8=Starry Night
TTITLE9=True Love
TTITLE10=Johnny Boy
EXTD=YEAR: 2007
EXTT0=
EXTT1=
EXTT2=
EXTT3=
EXTT4=
EXTT5=
EXTT6=
EXTT7=
EXTT8=
EXTT9=
EXTT10=
PLAYORDER=
